:FULLY-SPECIFIED
:FORCE-ALL-JOINTS-BE-3DOF
:DEGREES
2650
root -1.75996 15.0949 -28.5927 1189.33 -63.3642 -113.588
lfemur -35.1867 26.5071 -3.7645
ltibia 61.7965 0 0
lfoot 9.72941 12.8589 0
ltoes -2.31662 0 0
rfemur -35.4709 -21.6243 21.3676
rtibia 70.3988 0 0
rfoot -22.6117 -12.5129 0
rtoes -6.12635 0 0
lowerback 16.4681 3.73405 0.457445
upperback -0.905704 5.15704 1.47991
thorax -10.0044 2.4855 0.172553
lowerneck -2.92537 7.36164 0.483579
upperneck 6.24273 9.70791 2.20708
head 2.57213 4.89139 0.973602
lclavicle -5.57908e-14 -9.82289e-15 0
lhumerus 32.1935 -24.2569 59.9515
lradius 115.742 0 0
lwrist 4.74229 0 0
lhand -35.3197 393.872 0
lfingers 7.12502 0 0
lthumb -8.44861 -656.455 0
rclavicle -5.57908e-14 -9.82289e-15 0
rhumerus -28.4954 48.5454 -87.5987
rradius 103.917 0 0
rwrist -45.1503 0 0
rhand -10.2159 -384.489 0
rfingers 7.12502 0 0
rthumb 15.7527 306.504 0
2651
root -1.87331 15.0954 -28.5656 1193.16 -63.093 -117.558
lfemur -35.2873 26.7603 -3.62054
ltibia 60.5554 0 0
lfoot 10.4744 12.7753 0
ltoes -1.51929 0 0
rfemur -35.0913 -21.3859 21.1822
rtibia 70.4636 0 0
rfoot -22.8777 -12.4373 0
rtoes -6.18058 0 0
lowerback 16.4366 3.87224 0.610833
upperback -0.90784 5.36439 1.4132
thorax -9.97779 2.57405 -0.0367556
lowerneck -2.89335 7.56064 0.638165
upperneck 6.36723 9.96992 2.0869
head 2.61559 5.02156 0.919932
lclavicle -5.71567e-14 -9.87986e-15 0
lhumerus 30.326 -22.9386 61.091
lradius 115.445 0 0
lwrist 3.15167 0 0
lhand -35.7081 393.441 0
lfingers 7.12502 0 0
lthumb -8.82353 -656.899 0
rclavicle -5.71567e-14 -9.87986e-15 0
rhumerus -29.4811 49.1678 -88.3354
rradius 104.715 0 0
rwrist -47.679 0 0
rhand -9.61705 -384.351 0
rfingers 7.12502 0 0
rthumb 16.3296 306.681 0
2652
root -1.98665 15.0958 -28.5384 1197 -62.8219 -121.528
lfemur -35.388 27.0134 -3.47659
ltibia 59.3143 0 0
lfoot 11.2194 12.6917 0
ltoes -0.721946 0 0
rfemur -34.7116 -21.1476 20.9969
rtibia 70.5284 0 0
rfoot -23.1436 -12.3616 0
rtoes -6.23481 0 0
lowerback 16.4052 4.01043 0.764221
upperback -0.909975 5.57174 1.34649
thorax -9.95113 2.6626 -0.246064
lowerneck -2.86132 7.75963 0.792751
upperneck 6.49173 10.2319 1.96671
head 2.65905 5.15172 0.866262
lclavicle -5.85227e-14 -9.93683e-15 0
lhumerus 28.4585 -21.6203 62.2305
lradius 115.147 0 0
lwrist 1.56104 0 0
lhand -36.0966 393.009 0
lfingers 7.12502 0 0
lthumb -9.19844 -657.342 0
rclavicle -5.85227e-14 -9.93683e-15 0
rhumerus -30.4668 49.7901 -89.0721
rradius 105.513 0 0
rwrist -50.2076 0 0
rhand -9.01819 -384.213 0
rfingers 7.12502 0 0
rthumb 16.9065 306.858 0
2653
root -2.09999 15.0963 -28.5112 1200.83 -62.5507 -125.499
lfemur -35.4886 27.2666 -3.33263
ltibia 58.0732 0 0
lfoot 11.9644 12.6081 0
ltoes 0.0753927 0 0
rfemur -34.3319 -20.9093 20.8115
rtibia 70.5932 0 0
rfoot -23.4096 -12.286 0
rtoes -6.28904 0 0
lowerback 16.3737 4.14862 0.917609
upperback -0.912111 5.77909 1.27979
thorax -9.92447 2.75115 -0.455372
lowerneck -2.8293 7.95862 0.947338
upperneck 6.61623 10.4939 1.84652
head 2.70251 5.28188 0.812592
lclavicle -5.98886e-14 -9.9938e-15 0
lhumerus 26.591 -20.302 63.3701
lradius 114.85 0 0
lwrist -0.0295829 0 0
lhand -36.485 392.578 0
lfingers 7.12502 0 0
lthumb -9.57335 -657.786 0
rclavicle -5.98886e-14 -9.9938e-15 0
rhumerus -31.4525 50.4124 -89.8088
rradius 106.312 0 0
rwrist -52.7363 0 0
rhand -8.41932 -384.075 0
rfingers 7.12502 0 0
rthumb 17.4833 307.035 0
2654
root -2.21333 15.0967 -28.4841 1204.66 -62.2796 -129.469
lfemur -35.5892 27.5198 -3.18867
ltibia 56.8321 0 0
lfoot 12.7094 12.5245 0
ltoes 0.872732 0 0
rfemur -33.9522 -20.671 20.6261
rtibia 70.658 0 0
rfoot -23.6755 -12.2104 0
rtoes -6.34326 0 0
lowerback 16.3423 4.28681 1.071
upperback -0.914247 5.98644 1.21308
thorax -9.89782 2.83971 -0.66468
lowerneck -2.79728 8.15761 1.10192
upperneck 6.74073 10.7559 1.72634
head 2.74598 5.41204 0.758922
lclavicle -6.12545e-14 -1.00508e-14 0
lhumerus 24.7235 -18.9836 64.5096
lradius 114.552 0 0
lwrist -1.62021 0 0
lhand -36.8735 392.147 0
lfingers 7.12502 0 0
lthumb -9.94826 -658.229 0
rclavicle -6.12545e-14 -1.00508e-14 0
rhumerus -32.4382 51.0347 -90.5455
rradius 107.11 0 0
rwrist -55.2649 0 0
rhand -7.82046 -383.936 0
rfingers 7.12502 0 0
rthumb 18.0602 307.212 0
2655
root -2.32668 15.0971 -28.4569 1208.5 -62.0085 -133.439
lfemur -35.6899 27.773 -3.04471
ltibia 55.591 0 0
lfoot 13.4543 12.4409 0
ltoes 1.67007 0 0
rfemur -33.5725 -20.4327 20.4408
rtibia 70.7228 0 0
rfoot -23.9415 -12.1347 0
rtoes -6.39749 0 0
lowerback 16.3108 4.425 1.22438
upperback -0.916383 6.19379 1.14637
thorax -9.87116 2.92826 -0.873989
lowerneck -2.76525 8.3566 1.25651
upperneck 6.86523 11.0179 1.60615
head 2.78944 5.5422 0.705252
lclavicle -6.26204e-14 -1.01077e-14 0
lhumerus 22.856 -17.6653 65.6491
lradius 114.254 0 0
lwrist -3.21083 0 0
lhand -37.262 391.715 0
lfingers 7.12502 0 0
lthumb -10.3232 -658.673 0
rclavicle -6.26204e-14 -1.01077e-14 0
rhumerus -33.4239 51.657 -91.2822
rradius 107.908 0 0
rwrist -57.7936 0 0
rhand -7.2216 -383.798 0
rfingers 7.12502 0 0
rthumb 18.6371 307.389 0
2656
root -2.44002 15.0976 -28.4297 1212.33 -61.7373 -137.409
lfemur -35.7905 28.0262 -2.90075
ltibia 54.3498 0 0
lfoot 14.1993 12.3573 0
ltoes 2.46741 0 0
rfemur -33.1928 -20.1944 20.2554
rtibia 70.7877 0 0
rfoot -24.2074 -12.0591 0
rtoes -6.45172 0 0
lowerback 16.2794 4.56319 1.37777
upperback -0.918519 6.40114 1.07966
thorax -9.8445 3.01681 -1.0833
lowerneck -2.73323 8.55559 1.4111
upperneck 6.98973 11.2799 1.48597
head 2.8329 5.67236 0.651582
lclavicle -6.39864e-14 -1.01647e-14 0
lhumerus 20.9884 -16.347 66.7886
lradius 113.957 0 0
lwrist -4.80146 0 0
lhand -37.6504 391.284 0
lfingers 7.12502 0 0
lthumb -10.6981 -659.116 0
rclavicle -6.39864e-14 -1.01647e-14 0
rhumerus -34.4096 52.2793 -92.0188
rradius 108.706 0 0
rwrist -60.3222 0 0
rhand -6.62273 -383.66 0
rfingers 7.12502 0 0
rthumb 19.214 307.566 0
2657
root -2.55336 15.098 -28.4026 1216.17 -61.4662 -141.379
lfemur -35.8911 28.2794 -2.75679
ltibia 53.1087 0 0
lfoot 14.9443 12.2737 0
ltoes 3.26475 0 0
rfemur -32.8131 -19.9561 20.07
rtibia 70.8525 0 0
rfoot -24.4734 -11.9834 0
rtoes -6.50595 0 0
lowerback 16.2479 4.70138 1.53116
upperback -0.920655 6.60849 1.01295
thorax -9.81784 3.10536 -1.29261
lowerneck -2.70121 8.75458 1.56568
upperneck 7.11423 11.542 1.36578
head 2.87636 5.80252 0.597912
lclavicle -6.53523e-14 -1.02217e-14 0
lhumerus 19.1209 -15.0287 67.9282
lradius 113.659 0 0
lwrist -6.39208 0 0
lhand -38.0389 390.853 0
lfingers 7.12502 0 0
lthumb -11.073 -659.56 0
rclavicle -6.53523e-14 -1.02217e-14 0
rhumerus -35.3954 52.9016 -92.7555
rradius 109.505 0 0
rwrist -62.8509 0 0
rhand -6.02387 -383.522 0
rfingers 7.12502 0 0
rthumb 19.7909 307.743 0
2658
root -2.66671 15.0985 -28.3754 1220 -61.195 -145.349
lfemur -35.9917 28.5325 -2.61284
ltibia 51.8676 0 0
lfoot 15.6893 12.1901 0
ltoes 4.06209 0 0
rfemur -32.4334 -19.7178 19.8846
rtibia 70.9173 0 0
rfoot -24.7393 -11.9078 0
rtoes -6.56018 0 0
lowerback 16.2164 4.83956 1.68455
upperback -0.92279 6.81584 0.946243
thorax -9.79118 3.19391 -1.50191
lowerneck -2.66919 8.95357 1.72027
upperneck 7.23873 11.804 1.24559
head 2.91982 5.93268 0.544242
lclavicle -6.67182e-14 -1.02786e-14 0
lhumerus 17.2534 -13.7103 69.0677
lradius 113.362 0 0
lwrist -7.9827 0 0
lhand -38.4273 390.422 0
lfingers 7.12502 0 0
lthumb -11.4479 -660.003 0
rclavicle -6.67182e-14 -1.02786e-14 0
rhumerus -36.3811 53.5239 -93.4922
rradius 110.303 0 0
rwrist -65.3796 0 0
rhand -5.425 -383.384 0
rfingers 7.12502 0 0
rthumb 20.3678 307.92 0
2659
root -2.78005 15.0989 -28.3482 1223.84 -60.9239 -149.32
lfemur -36.0924 28.7857 -2.46888
ltibia 50.6265 0 0
lfoot 16.4343 12.1065 0
ltoes 4.85943 0 0
rfemur -32.0537 -19.4795 19.6993
rtibia 70.9821 0 0
rfoot -25.0053 -11.8321 0
rtoes -6.6144 0 0
lowerback 16.185 4.97775 1.83794
upperback -0.924926 7.02319 0.879534
thorax -9.76453 3.28247 -1.71122
lowerneck -2.63716 9.15256 1.87486
upperneck 7.36323 12.066 1.12541
head 2.96329 6.06284 0.490572
lclavicle -6.80841e-14 -1.03356e-14 0
lhumerus 15.3859 -12.392 70.2072
lradius 113.064 0 0
lwrist -9.57333 0 0
lhand -38.8158 389.99 0
lfingers 7.12502 0 0
lthumb -11.8228 -660.447 0
rclavicle -6.80841e-14 -1.03356e-14 0
rhumerus -37.3668 54.1462 -94.2289
rradius 111.101 0 0
rwrist -67.9082 0 0
rhand -4.82614 -383.245 0
rfingers 7.12502 0 0
rthumb 20.9447 308.097 0
